<?xml version="1.0" encoding="UTF-8" standalone="no"?>
<!-- Created with Inkscape (http://www.inkscape.org/) -->

<svg
   xmlns:dc="http://purl.org/dc/elements/1.1/"
   xmlns:cc="http://creativecommons.org/ns#"
   xmlns:rdf="http://www.w3.org/1999/02/22-rdf-syntax-ns#"
   xmlns:svg="http://www.w3.org/2000/svg"
   xmlns="http://www.w3.org/2000/svg"
   xmlns:sodipodi="http://sodipodi.sourceforge.net/DTD/sodipodi-0.dtd"
   xmlns:inkscape="http://www.inkscape.org/namespaces/inkscape"
   width="744.09448819"
   height="1052.3622047"
   id="svg2"
   version="1.1"
   inkscape:version="0.48.3.1 r9886"
   sodipodi:docname="logo.svg">
  <defs
     id="defs4" />
  <sodipodi:namedview
     id="base"
     pagecolor="#ffffff"
     bordercolor="#666666"
     borderopacity="1.0"
     inkscape:pageopacity="0.0"
     inkscape:pageshadow="2"
     inkscape:zoom="0.60019314"
     inkscape:cx="12.271874"
     inkscape:cy="670.46416"
     inkscape:document-units="px"
     inkscape:current-layer="layer1"
     showgrid="false"
     inkscape:window-width="1432"
     inkscape:window-height="812"
     inkscape:window-x="0"
     inkscape:window-y="26"
     inkscape:window-maximized="1" />
  <metadata
     id="metadata7">
    <rdf:RDF>
      <cc:Work
         rdf:about="">
        <dc:format>image/svg+xml</dc:format>
        <dc:type
           rdf:resource="http://purl.org/dc/dcmitype/StillImage" />
        <dc:title />
      </cc:Work>
    </rdf:RDF>
  </metadata>
  <g
     inkscape:label="Layer 1"
     inkscape:groupmode="layer"
     id="layer1">
    <path
       style="fill:#f8813d;fill-opacity:1;stroke:none"
       d="m 161.10344,251.19962 256,0 0,256 -256,0 z"
       id="rect2992" />
    <path
       inkscape:connector-curvature="0"
       d="m 205.85693,403.05958 154.98463,-26.25622 c 4.37572,-0.72921 6.56372,-1.45852 6.56409,-2.18799 -3.7e-4,-1.70166 -1.33748,-3.88971 -4.01139,-6.56409 -7.53684,-6.80701 -15.1949,-13.24952 -22.9742,-19.32748 -3.16076,-2.9172 -5.5919,-2.30941 -7.2934,1.82334 l -9.48139,19.69219 c -0.72962,1.70192 -4.01163,2.91747 -9.8461,3.64668 l -107.94224,18.59816 0,-72.93395 c 0.97229,-0.24273 2.55249,-0.60759 4.74069,-1.09402 34.52186,-8.26564 57.13137,-12.88482 67.82861,-13.85742 10.9398,-0.9723 18.96256,-0.9723 24.06817,0 3.16024,0.72951 5.34823,0.24323 6.56408,-1.45869 0.24273,-0.72915 -0.12188,-1.70161 -1.09402,-2.91735 -5.10566,-5.34829 -11.6697,-12.88482 -19.69219,-22.60956 -0.97266,-1.70155 -2.67448,-1.94469 -5.10536,-0.7293 -31.60492,11.91272 -65.51919,23.09593 -101.74287,33.54961 -30.87545,8.75223 -62.60173,15.43783 -95.178795,20.0568 -4.619177,0.72952 -6.928791,2.67442 -6.928739,5.83471 0.243243,2.43135 2.674219,3.52531 7.293396,3.28207 34.522018,-3.88965 68.436238,-9.23814 101.742878,-16.04547 l 0,71.83993 -84.96804,14.58679 c -5.348545,0.97256 -18.962883,2.67432 -40.843017,5.10536 -2.91741,0.24323 -3.403637,1.45877 -1.45868,3.64672 2.917307,2.91741 6.320891,6.56413 10.210754,10.94006 0.243243,0.72942 0.972401,0.72942 2.187993,0 12.398746,-4.61907 23.581951,-7.90108 33.54962,-9.84604 l 81.32137,-13.49282 0,87.15609 c -1.5e-4,10.45389 1.94475,17.50414 5.83471,21.15087 3.88966,3.88976 8.2657,5.83466 13.12811,5.83471 3.16029,-5e-5 5.46986,-5e-5 6.92874,0 l 128.36376,0 c 8.0224,-5e-5 14.708,-2.06647 20.0568,-6.19942 4.37572,-3.16045 7.90088,-8.38737 10.57546,-15.68077 0.729,-1.45867 0.48597,-2.43113 -0.72937,-2.91735 -2.91767,-1.70182 -4.86257,-5.22692 -5.83471,-10.57547 -2.18836,-9.72447 -2.30987,-25.28371 -0.36461,-46.67772 0.24273,-2.43103 -0.85125,-4.01128 -3.28201,-4.7407 -2.43149,-0.24324 -3.76861,1.21565 -4.01138,4.37604 -3.64704,24.06823 -7.41528,41.45081 -11.30478,52.14779 -1.70208,5.34849 -3.89012,8.87364 -6.56403,10.57541 -1.45899,1.45868 -4.13326,2.18804 -8.02276,2.18804 l -111.22426,0 c -0.97266,0 -2.796,0 -5.47007,0 -3.16065,0 -5.7133,-1.09402 -7.65804,-3.28206 -1.70198,-1.70177 -2.67443,-5.10535 -2.91736,-10.21076 l 0,-86.42672 M 97.550072,246.25161 l 241.776018,0 c -6.07812,10.4541 -13.0068,21.15108 -20.78617,32.09094 -2.43139,3.16065 -2.55296,5.59179 -0.3646,7.2934 1.70151,1.45889 3.76798,0.72952 6.19937,-2.18805 15.55893,-17.74702 27.4715,-28.44401 35.73766,-32.09094 6.80681,-3.16018 14.22177,-5.10509 22.24484,-5.83471 3.16014,-0.24272 3.88945,-1.45842 2.188,-3.64667 -6.56439,-6.0776 -14.34397,-13.00629 -23.33886,-20.78622 -0.97277,-0.97214 -2.06674,-1.57994 -3.28202,-1.82334 -0.97277,3.1e-4 -1.94522,0.60806 -2.91736,1.82334 l -13.12811,12.03414 c -0.97276,0.97271 -2.30987,1.58051 -4.01138,1.82334 l -105.75421,0 c 0.24273,-0.9722 0.85068,-1.94465 1.82334,-2.91736 3.8896,-6.80692 5.83451,-12.64163 5.83472,-17.50415 -0.24325,-3.64641 -2.30978,-7.53622 -6.19938,-11.66943 -6.07801,-6.80686 -15.07322,-13.85717 -26.98559,-21.15088 -2.43128,-1.70145 -4.37619,-2.0661 -5.83471,-1.09397 -0.97261,1.459 -0.97261,3.0392 0,4.7407 6.07769,8.02302 10.57525,15.31642 13.49282,21.88019 3.64651,7.29365 5.8345,15.68107 6.56403,25.16219 -1.6e-4,0.72963 -1.6e-4,1.58051 0,2.55271 l -122.893699,0 c -0.243243,-3.64641 -0.364606,-7.17157 -0.364606,-10.57541 -0.243243,-2.18774 -1.215643,-3.28176 -2.917357,-3.28207 -1.701871,-0.24272 -2.674323,0.72962 -2.917359,2.91736 -1.70187,13.85774 -4.740746,25.28403 -9.116782,34.27898 -5.105403,8.75228 -10.940119,15.55945 -17.50415,20.42151 -3.160496,2.43133 -4.983832,5.22713 -5.470007,8.38742 -0.243243,3.16065 0.364605,5.83492 1.823336,8.0227 1.458627,1.70203 3.768241,2.91757 6.928739,3.64673 3.160445,0.24324 6.685547,-1.21538 10.575409,-4.37604 6.077804,-5.83451 11.183155,-15.19438 15.316105,-28.07961 1.701766,-6.07755 2.795788,-12.7632 3.282066,-20.0568"
       id="path2990"
       style="fill:#ffffff;fill-opacity:1;stroke:#ffffff;stroke-width:5.18641424;stroke-opacity:1" />
  </g>
</svg>
