<?xml version="1.0" encoding="UTF-8" standalone="no"?>
<!-- Created with Inkscape (http://www.inkscape.org/) -->

<svg
   xmlns:dc="http://purl.org/dc/elements/1.1/"
   xmlns:cc="http://creativecommons.org/ns#"
   xmlns:rdf="http://www.w3.org/1999/02/22-rdf-syntax-ns#"
   xmlns:svg="http://www.w3.org/2000/svg"
   xmlns="http://www.w3.org/2000/svg"
   xmlns:sodipodi="http://sodipodi.sourceforge.net/DTD/sodipodi-0.dtd"
   xmlns:inkscape="http://www.inkscape.org/namespaces/inkscape"
   width="744.09448819"
   height="1052.3622047"
   id="svg2"
   version="1.1"
   inkscape:version="0.48.3.1 r9886"
   sodipodi:docname="logo.svg">
  <defs
     id="defs4" />
  <sodipodi:namedview
     id="base"
     pagecolor="#ffffff"
     bordercolor="#666666"
     borderopacity="1.0"
     inkscape:pageopacity="0.0"
     inkscape:pageshadow="2"
     inkscape:zoom="1.838075"
     inkscape:cx="299.0468"
     inkscape:cy="686.67179"
     inkscape:document-units="px"
     inkscape:current-layer="layer1"
     showgrid="false"
     inkscape:window-width="1432"
     inkscape:window-height="812"
     inkscape:window-x="0"
     inkscape:window-y="26"
     inkscape:window-maximized="1" />
  <metadata
     id="metadata7">
    <rdf:RDF>
      <cc:Work
         rdf:about="">
        <dc:format>image/svg+xml</dc:format>
        <dc:type
           rdf:resource="http://purl.org/dc/dcmitype/StillImage" />
        <dc:title></dc:title>
      </cc:Work>
    </rdf:RDF>
  </metadata>
  <g
     inkscape:label="Layer 1"
     inkscape:groupmode="layer"
     id="layer1">
    <rect
       style="fill:#f8813d;fill-opacity:1;stroke:none"
       id="rect2992"
       width="256"
       height="256"
       x="161.10344"
       y="251.19962"
       inkscape:export-xdpi="11.25"
       inkscape:export-ydpi="11.25" />
  </g>
  <g
     inkscape:groupmode="layer"
     id="layer2"
     inkscape:label="层">
    <g
       transform="matrix(4.3343624,0,0,4.3343624,-1250.985,-1745.9176)"
       style="font-size:72px;font-style:normal;font-variant:normal;font-weight:normal;font-stretch:normal;text-align:start;line-height:125%;letter-spacing:0px;word-spacing:0px;writing-mode:lr-tb;text-anchor:start;fill:#ffffff;fill-opacity:1;stroke:#ffffff;stroke-opacity:1;font-family:'文鼎ＰＬ細上海宋';-inkscape-font-specification:'文鼎ＰＬ細上海宋'"
       id="text2985"
       inkscape:export-xdpi="87.760086"
       inkscape:export-ydpi="87.760086">
      <path
         inkscape:connector-curvature="0"
         d="m 352.90625,499.93585 29.88281,-5.0625 c 0.84369,-0.1406 1.26556,-0.28122 1.26563,-0.42187 -7e-5,-0.3281 -0.25788,-0.74998 -0.77344,-1.26563 -1.45319,-1.31247 -2.92975,-2.55466 -4.42969,-3.72656 -0.60943,-0.56247 -1.07818,-0.44528 -1.40625,0.35156 l -1.82812,3.79688 c -0.14068,0.32815 -0.77349,0.56252 -1.89844,0.70312 l -20.8125,3.58594 0,-14.0625 c 0.18747,-0.0468 0.49215,-0.11715 0.91406,-0.21094 6.65621,-1.59371 11.01558,-2.48434 13.07813,-2.67187 2.10932,-0.18747 3.6562,-0.18747 4.64062,0 0.60933,0.14066 1.0312,0.0469 1.26563,-0.28125 0.0468,-0.14059 -0.0235,-0.32809 -0.21094,-0.5625 -0.98443,-1.03121 -2.25005,-2.48434 -3.79688,-4.35938 -0.18754,-0.32808 -0.51567,-0.37496 -0.98437,-0.14062 -6.09379,2.29691 -12.63285,4.45316 -19.61719,6.46875 -5.95314,1.68753 -12.07033,2.97659 -18.35156,3.86718 -0.89063,0.14066 -1.33595,0.51566 -1.33594,1.125 0.0469,0.46879 0.51562,0.67972 1.40625,0.63282 6.65624,-0.74997 13.19529,-1.78122 19.61719,-3.09375 l 0,13.85156 -16.38281,2.8125 c -1.03126,0.18752 -3.65626,0.51564 -7.875,0.98437 -0.56251,0.0469 -0.65626,0.28127 -0.28125,0.70313 0.56249,0.56251 1.21874,1.26564 1.96875,2.10937 0.0469,0.14064 0.18749,0.14064 0.42187,0 2.39062,-0.89061 4.54687,-1.52342 6.46875,-1.89843 l 15.67969,-2.60157 0,16.80469 c -3e-5,2.01563 0.37497,3.375 1.125,4.07813 0.74997,0.74999 1.59372,1.12499 2.53125,1.125 0.60934,-10e-6 1.05465,-10e-6 1.33594,0 l 24.75,0 c 1.54681,-10e-6 2.83587,-0.39844 3.86718,-1.19532 0.84369,-0.60937 1.52338,-1.61718 2.03907,-3.02343 0.14056,-0.28125 0.0937,-0.46875 -0.14063,-0.5625 -0.56256,-0.32813 -0.93756,-1.00781 -1.125,-2.03907 -0.42194,-1.87499 -0.44537,-4.87499 -0.0703,-9 0.0468,-0.46873 -0.16413,-0.77342 -0.63281,-0.91406 -0.46882,-0.0469 -0.72663,0.23439 -0.77344,0.84375 -0.70319,4.64063 -1.42975,7.99219 -2.17969,10.05469 -0.32818,1.03125 -0.75006,1.71094 -1.26562,2.03906 -0.28131,0.28125 -0.79694,0.42188 -1.54688,0.42188 l -21.44531,0 c -0.18754,0 -0.5391,0 -1.05469,0 -0.60941,0 -1.10159,-0.21094 -1.47656,-0.63282 -0.32816,-0.32812 -0.51566,-0.98437 -0.5625,-1.96875 l 0,-16.66406 m -20.88281,-30.23437 46.61718,0 c -1.17193,2.01567 -2.50786,4.07817 -4.00781,6.1875 -0.4688,0.60941 -0.49224,1.07816 -0.0703,1.40625 0.32807,0.28129 0.72651,0.14066 1.19531,-0.42188 2.99994,-3.42183 5.29682,-5.48433 6.89063,-6.1875 1.31243,-0.60932 2.74212,-0.98432 4.28906,-1.125 0.60931,-0.0468 0.74993,-0.2812 0.42187,-0.70312 -1.26569,-1.17183 -2.76568,-2.50776 -4.5,-4.00782 -0.18756,-0.18744 -0.39849,-0.30463 -0.63281,-0.35156 -0.18756,6e-5 -0.37506,0.11724 -0.5625,0.35156 l -2.53125,2.32032 c -0.18756,0.18755 -0.44537,0.30474 -0.77344,0.35156 l -20.39062,0 c 0.0468,-0.18745 0.16402,-0.37495 0.35156,-0.5625 0.74996,-1.31245 1.12496,-2.43745 1.125,-3.375 -0.0469,-0.70307 -0.44535,-1.45307 -1.19531,-2.25 -1.17191,-1.31244 -2.90629,-2.67182 -5.20313,-4.07813 -0.46878,-0.32806 -0.84378,-0.39837 -1.125,-0.21093 -0.18753,0.28131 -0.18753,0.58599 0,0.91406 1.17185,1.54693 2.03903,2.95318 2.60157,4.21875 0.70309,1.4063 1.12496,3.02349 1.26562,4.85156 -3e-5,0.14068 -3e-5,0.30474 0,0.49219 l -23.69531,0 c -0.0469,-0.70307 -0.0703,-1.38276 -0.0703,-2.03906 -0.0469,-0.42182 -0.23439,-0.63276 -0.5625,-0.63282 -0.32814,-0.0468 -0.51564,0.14068 -0.5625,0.5625 -0.32814,2.67193 -0.91407,4.87505 -1.75782,6.60938 -0.98438,1.68754 -2.10938,3.00004 -3.375,3.9375 -0.60938,0.46879 -0.96094,1.00785 -1.05468,1.61719 -0.0469,0.60941 0.0703,1.12504 0.35156,1.54687 0.28124,0.32817 0.72656,0.56254 1.33594,0.70313 0.60937,0.0469 1.28905,-0.23434 2.03906,-0.84375 1.17187,-1.12496 2.15624,-2.92965 2.95312,-5.41407 0.32812,-1.17182 0.53906,-2.46089 0.63282,-3.86718"
         id="path2990"
         style="fill:#ffffff;fill-opacity:1;stroke:#ffffff;stroke-opacity:1" />
    </g>
  </g>
</svg>
